<svg width="1569" height="421" viewBox="0 0 1569 421" fill="none" xmlns="http://www.w3.org/2000/svg">
<g clip-path="url(#clip0_223_1659)">
<path d="M501.456 138.66C523.873 138.655 552.97 135.444 571.517 149.454C592.516 165.316 594.082 203.103 578.489 223.172C569.218 235.104 556.876 238.579 542.733 240.228C512.797 241.277 477.069 240.319 446.671 240.314L446.687 284.475L425.354 284.449L425.402 138.747L501.456 138.66ZM562.027 169.149C552.471 155.331 523.842 158.421 508.316 158.432L446.697 158.522L446.733 220.589L509.223 220.829C523.79 220.839 548.718 223.279 559.649 213.016C569.286 201.476 570.647 181.612 562.027 169.149Z" fill="#143A2D"/>
<path d="M1408.41 139.081C1408.53 159.874 1408.54 180.667 1408.42 201.46C1409.4 199.895 1410.44 198.38 1411.56 196.923C1429.88 173.296 1470.55 171.489 1493.19 189.195C1517.98 208.578 1517.83 246.564 1499.25 269.899C1496.98 272.266 1494.49 274.418 1491.81 276.328C1470.74 291.473 1432.16 290.15 1414.34 270.552C1412.15 268.144 1410.22 265.548 1408.32 262.904L1408.39 284.412L1396.69 284.342V139.108L1408.41 139.081ZM1485.03 197.233C1477.1 191.117 1461.75 186.962 1451.57 188.609C1438.26 189.928 1427.25 193.177 1418.28 203.951C1403.7 221.481 1405.81 251.51 1423.76 265.975C1434.49 274.613 1447.31 275.967 1460.49 275.526C1473.17 273.995 1483.34 271.081 1491.62 260.396C1505.47 242.528 1503.5 211.261 1485.03 197.233Z" fill="#143A2D"/>
<path d="M987.229 138.97C993.794 138.599 1002.15 138.753 1008.85 138.688C1009.84 186.124 1008.93 236.824 1008.93 284.526L987.696 284.402C988.263 256.821 987.865 228.005 987.872 200.358L987.712 171.513L922.086 253.88L911.123 253.974C908.756 251.329 906.098 247.919 903.922 245.056C884.907 220.024 863.617 196.079 844.724 171.022C845.498 207.904 844.74 247.334 844.847 284.47L823.671 284.412C824.223 236.246 823.648 187.024 823.756 138.768L845.391 138.778C868.734 168.716 893.449 198.17 916.486 228.276C923.396 220.434 933.226 207.191 939.99 198.648L987.229 138.97Z" fill="#143A2D"/>
<path d="M1308.9 177.868C1332.09 176.085 1348.51 181.915 1362.74 201.166C1362.56 194.235 1362.65 186.914 1362.62 179.95L1374.15 180.002L1374.22 284.431L1362.64 284.363L1362.62 262.729C1359.64 266.899 1357.82 269.13 1354.35 272.912C1322.92 300.326 1262.68 285.967 1259.65 239.501C1257.41 205.126 1273.45 181.461 1308.9 177.868ZM1346.25 197.503C1339.17 191.046 1321.34 186.906 1311.36 188.583C1282.03 192.023 1268.69 210.123 1271.69 239.313C1274.52 266.723 1296.93 277.739 1322.5 275.363C1363.53 270.487 1376.17 224.797 1346.25 197.503Z" fill="#143A2D"/>
<path d="M677.051 138.851C680.675 138.27 702.612 138.559 707.236 138.566L773.322 138.708V158.505L711.947 158.422C669.304 158.311 642.944 155.33 642.925 210.052C642.915 239.218 646.499 263.721 682.566 265.427C696.15 265.822 710.395 265.509 723.894 265.617C739.568 265.743 758.589 264.423 763.301 246.293C765.526 237.732 764.989 229.269 764.922 220.58C748.267 220.358 731.09 220.523 714.401 220.499L697.742 220.47L697.75 201.124L785.956 201.065C785.818 221.505 789.441 251.105 776.004 267.934C759.208 288.967 733.212 284.262 710.199 285.347C667.682 287.351 627.613 283.109 622.412 231.109C617.945 186.445 624.093 144.188 677.051 138.851Z" fill="#143A2D"/>
<path d="M1136.8 139.157L1149.04 139.188L1149.12 272.66C1180.97 273.273 1213.88 272.834 1245.8 272.797L1245.82 284.403L1136.71 284.309L1136.8 139.157Z" fill="#143A2D"/>
<path d="M245.148 29.7451C256.135 69.2064 258.662 108.719 248.749 148.694C247.598 153.334 243.617 167.701 241.413 171.526C241.253 171.803 241.084 172.073 240.904 172.338C234.144 199.285 202.413 236.645 181.23 254.062C159.415 272 133.861 285.149 136.31 318.024C137.644 334.067 145.211 348.95 157.39 359.489C199.37 395.619 266.752 369.641 298.966 332.047C322.304 304.606 333.887 269.085 331.205 233.175C328.802 198.859 313.759 166.648 288.982 142.763C285.071 139.016 280.956 135.412 276.474 132.365C272.445 129.626 265.404 125.398 270.196 120.025C281.709 116.908 309.047 150.467 315.14 159.716C337.052 192.946 344.968 233.47 337.17 272.495C329.798 309.549 308.008 342.165 276.585 363.179C245.203 383.717 206.881 390.803 170.221 382.849C131.74 374.491 98.1655 351.184 76.9043 318.065C53.8061 282.016 45.6929 238.387 54.2891 196.454C61.8528 161.143 84.8224 123.23 115.347 103.528C119.936 99.1431 130.701 92.6273 136.266 89.4736C147.613 83.0836 159.287 77.2891 171.24 72.1172C195.19 61.5962 228.356 49.9192 245.148 29.7451ZM206.867 112.149C192.469 120.458 182.917 128.207 170.199 138.587C147.067 162.559 131.64 183.48 120.093 215.53C111.378 198.487 108.104 188.034 105.014 168.872C105.637 191.5 107.155 205.079 116.487 226.108C102.755 274.036 102.074 337.821 150.395 366.708C94.6094 310.299 124.97 195.915 174.4 144.662C177.585 138.64 200.528 117.862 206.867 112.149ZM172.771 300.756C178.242 300.626 195.489 299.41 198.824 302.208C201.08 308.575 201.039 359.745 199.774 365.459C187.682 363.519 181.453 361.985 170.879 356.012C170.773 339.527 170.336 320.879 171.044 304.297C171.088 303.286 172.143 301.577 172.771 300.756ZM220.711 256.395C226.55 256.261 242.466 255.272 246.854 257.774C249.31 262.943 248.261 344.862 248.255 356.667C245.908 357.795 242.584 359.042 240.105 360.057C233.113 362.346 225.924 363.986 218.63 364.955L218.604 296.46C218.594 289.43 217.37 260.441 220.711 256.395ZM266.769 215.837C271.394 215.717 288.959 213.937 292.36 217.266C294.702 219.557 293.545 311.71 293.534 322.348C289.284 327.24 286.133 330.629 281.456 335.104C275.759 339.982 271.718 343.13 265.577 347.433C265.576 331.979 263.942 221.688 266.769 215.837Z" fill="#79BA44"/>
<path d="M1043.51 205.674C1061.89 205.348 1081.37 205.679 1099.82 205.725L1099.86 219.421L1043.52 219.248L1043.51 205.674Z" fill="#79BA44"/>
</g>
<defs>
<clipPath id="clip0_223_1659">
<rect width="1569" height="421" fill="white"/>
</clipPath>
</defs>
</svg>
